<svg width="37" height="37" viewBox="0 0 37 37" fill="#1C1B1F" stroke="black" xmlns="http://www.w3.org/2000/svg">
<path d="M19.401 29.5855V34.7096H17.3394V29.5855H19.401ZM30.0992 28.6012L28.6265 30.1256L25.608 26.981L26.9556 25.5826L30.0992 28.6012ZM11.1568 26.9557L8.13826 30.0992L6.61385 28.6275L9.7574 25.608L11.1568 26.9557ZM18.3697 11.2154C20.3552 11.2154 22.0337 11.9097 23.4322 13.3082C24.8305 14.7065 25.5239 16.3844 25.524 18.3697C25.524 20.3553 24.8307 22.0338 23.4322 23.4322C22.0337 24.8307 20.3552 25.524 18.3697 25.524C16.3844 25.5239 14.7065 24.8305 13.3082 23.4322C11.9097 22.0338 11.2154 20.3553 11.2154 18.3697C11.2155 16.3843 11.9098 14.7066 13.3082 13.3082C14.7066 11.9098 16.3843 11.2155 18.3697 11.2154ZM18.3697 13.2779C16.9631 13.278 15.751 13.7755 14.7633 14.7633C13.7755 15.751 13.278 16.9631 13.2779 18.3697C13.2779 19.7765 13.7754 20.9893 14.7633 21.9771C15.751 22.9648 16.9631 23.4624 18.3697 23.4625C19.7765 23.4625 20.9893 22.965 21.9771 21.9771C22.965 20.9893 23.4625 19.7765 23.4625 18.3697C23.4624 16.9631 22.9648 15.751 21.9771 14.7633C20.9893 13.7755 19.7765 13.2779 18.3697 13.2779ZM34.7095 17.3394V19.401H29.5855V17.3394H34.7095ZM7.15388 17.3394V19.401H2.03084V17.3394H7.15388ZM11.0992 9.72617L9.77693 11.151L6.63924 8.13828L8.11189 6.61386L11.0992 9.72617ZM30.1246 8.11191L27.0133 11.0992L25.5885 9.77695L28.6012 6.63925L30.1246 8.11191ZM19.401 2.03085V7.1539H17.3394V2.03085H19.401Z" />
</svg>
